<?xml version="1.0" standalone="no"?>
<!DOCTYPE svg PUBLIC "-//W3C//DTD SVG 20010904//EN"
 "http://www.w3.org/TR/2001/REC-SVG-20010904/DTD/svg10.dtd">
<svg version="1.0" xmlns="http://www.w3.org/2000/svg"
 width="512.000000pt" height="512.000000pt" viewBox="0 0 512.000000 512.000000"
 preserveAspectRatio="xMidYMid meet">
<metadata>
Created by potrace 1.14, written by Peter Selinger 2001-2017
</metadata>
<g transform="translate(0.000000,512.000000) scale(0.100000,-0.100000)"
fill="#000000" stroke="none">
<path d="M0 2560 l0 -2560 2560 0 2560 0 0 2560 0 2560 -2560 0 -2560 0 0
-2560z m1807 1176 c73 -164 133 -310 133 -325 0 -15 -5 -32 -12 -39 -16 -16
-63 -15 -76 1 -21 25 -272 600 -272 623 0 31 34 54 67 45 23 -6 42 -43 160
-305z m754 164 c17 -10 19 -22 18 -128 -2 -217 -12 -312 -33 -328 -21 -15 -55
-10 -69 10 -5 6 -5 103 -2 216 5 167 9 208 22 223 18 19 36 21 64 7z m837 -2
c7 -7 12 -23 12 -37 0 -23 -190 -450 -212 -478 -13 -16 -60 -17 -76 -1 -7 7
-12 23 -12 36 0 22 190 451 213 480 12 15 59 16 75 0z m506 -304 c34 -33 29
-42 -118 -214 -118 -139 -167 -190 -183 -190 -6 0 -24 11 -40 24 -24 20 -26
27 -16 47 6 13 74 97 152 187 148 169 168 183 205 146z m-2642 -145 c228 -181
236 -190 205 -233 -28 -39 -59 -23 -246 124 -156 124 -181 147 -181 171 0 32
23 59 50 59 11 0 88 -55 172 -121z m1661 -289 c246 -37 464 -104 593 -181 105
-64 184 -175 219 -310 20 -76 18 -266 -3 -291 -10 -13 -1 -26 58 -85 38 -39
74 -82 79 -96 8 -20 2 -50 -30 -146 l-41 -121 -51 -15 c-28 -8 -60 -15 -71
-15 -16 0 -14 -4 12 -17 54 -26 65 -61 66 -203 1 -117 -1 -129 -26 -181 -56
-114 -201 -177 -548 -238 -507 -90 -982 -90 -1394 -1 -138 30 -282 79 -334
114 -97 65 -146 168 -145 306 1 127 19 165 101 220 20 13 22 20 16 56 l-6 41
-46 -13 c-89 -27 -181 -9 -203 40 -22 48 -3 93 69 166 37 37 77 74 90 82 21
14 21 18 12 68 -21 113 0 240 62 370 34 71 56 100 132 175 78 78 106 98 196
142 159 78 344 129 551 152 137 16 484 6 642 -19z"/>
<path d="M2285 3074 c-287 -41 -446 -94 -606 -200 -82 -54 -139 -121 -185
-219 -38 -80 -60 -200 -50 -270 6 -39 12 -48 44 -64 55 -28 132 -48 262 -68
164 -26 877 -26 1120 0 319 33 601 91 710 145 53 26 55 29 62 77 19 125 -31
281 -114 362 -93 90 -319 171 -613 219 -96 15 -555 29 -630 18z"/>
<path d="M3501 2255 l-94 -32 73 -6 c40 -3 109 -3 152 0 77 6 78 6 61 26 -21
23 -67 48 -85 45 -7 0 -55 -15 -107 -33z"/>
<path d="M1400 2189 c-21 -15 -55 -45 -76 -66 -36 -36 -37 -38 -16 -41 12 -2
51 6 86 18 104 34 133 12 147 -110 12 -105 30 -150 61 -150 28 0 57 18 178
109 115 86 187 117 236 101 45 -15 61 -48 74 -154 6 -48 18 -109 27 -134 19
-59 51 -122 61 -122 17 0 33 46 57 157 21 103 28 122 55 146 37 33 48 34 91 2
101 -73 155 -82 172 -30 15 47 46 74 105 91 65 19 149 8 226 -30 28 -14 53
-23 58 -20 19 12 8 98 -18 142 l-26 44 -57 -6 c-91 -10 -350 -26 -435 -26
l-79 0 6 -43 c9 -67 -33 -109 -80 -79 -15 10 -33 57 -33 87 0 30 -10 32 -230
40 -91 4 -178 8 -194 9 -26 1 -34 -7 -73 -72 -50 -81 -74 -100 -108 -84 -40
18 -40 46 0 117 25 46 32 66 23 68 -7 2 -55 17 -106 34 l-93 30 -39 -28z"/>
<path d="M3063 2163 c-24 -2 -43 -7 -43 -11 0 -4 9 -21 19 -38 17 -28 30 -34
137 -62 146 -38 247 -52 367 -51 130 0 169 9 183 39 33 70 40 67 -123 62 -158
-5 -265 9 -378 48 -56 19 -73 21 -162 13z"/>
<path d="M3090 1932 c44 -40 67 -48 129 -44 14 1 31 7 38 15 12 12 0 17 -74
35 -48 12 -99 25 -113 29 -21 5 -18 -1 20 -35z"/>
<path d="M1921 1921 l-24 -19 21 -11 c36 -19 54 -14 50 16 -4 34 -17 37 -47
14z"/>
<path d="M2653 1898 c-5 -7 -15 -27 -22 -45 -16 -39 -30 -51 -78 -68 l-38 -13
28 -11 c44 -17 96 -13 171 14 69 24 146 70 146 87 0 34 -184 65 -207 36z"/>
<path d="M3460 1744 c-330 -111 -704 -165 -1043 -149 -130 6 -148 5 -153 -10
-8 -21 -56 -45 -91 -45 -34 0 -86 31 -108 63 -13 21 -31 27 -123 42 -143 23
-319 67 -421 104 -46 17 -88 28 -92 25 -5 -3 -9 -46 -9 -95 0 -161 50 -217
242 -275 429 -128 986 -135 1574 -19 343 68 412 111 413 261 1 73 -10 142 -23
147 -6 2 -81 -20 -166 -49z"/>
</g>
</svg>
