<?xml version="1.0" standalone="no"?>
<!DOCTYPE svg PUBLIC "-//W3C//DTD SVG 20010904//EN"
 "http://www.w3.org/TR/2001/REC-SVG-20010904/DTD/svg10.dtd">
<svg version="1.0" xmlns="http://www.w3.org/2000/svg"
 width="1024.000000pt" height="1024.000000pt" viewBox="0 0 1024.000000 1024.000000"
 preserveAspectRatio="xMidYMid meet">
<metadata>
Created by potrace 1.14, written by Peter Selinger 2001-2017
</metadata>
<g transform="translate(0.000000,1024.000000) scale(0.100000,-0.100000)"
fill="#000000" stroke="none">
<path d="M3178 8773 c-27 -17 -48 -58 -48 -95 0 -15 124 -303 259 -600 11 -24
31 -69 45 -100 14 -32 38 -84 52 -115 14 -32 35 -78 46 -103 11 -25 31 -70 45
-100 14 -30 29 -64 33 -75 72 -165 90 -187 160 -188 33 -1 47 5 73 31 56 57
51 78 -94 390 -22 46 -39 85 -39 87 0 3 -14 35 -31 72 -17 38 -60 133 -96 213
-36 80 -74 165 -85 190 -11 25 -30 68 -43 95 -120 269 -129 287 -156 301 -37
19 -88 17 -121 -3z"/>
<path d="M5001 8491 c-17 -16 -31 -40 -32 -53 -7 -147 -23 -689 -22 -761 0
-61 4 -72 29 -98 30 -31 60 -36 111 -19 51 18 60 49 67 220 3 85 9 234 13 330
4 96 7 215 7 263 1 88 1 89 -32 118 -45 40 -98 40 -141 0z"/>
<path d="M6696 8499 c-14 -11 -37 -44 -50 -72 -13 -29 -76 -167 -141 -307 -64
-140 -130 -284 -147 -320 -17 -36 -38 -83 -48 -105 -10 -22 -30 -67 -45 -99
-34 -74 -30 -118 15 -158 46 -42 102 -39 146 8 19 19 34 39 34 44 0 7 35 86
165 365 12 28 45 100 73 160 28 61 66 144 85 185 55 120 74 163 81 187 10 32
-9 90 -36 113 -32 27 -97 26 -132 -1z"/>
<path d="M7727 7888 c-14 -13 -62 -66 -107 -118 -93 -107 -190 -218 -205 -234
-76 -81 -267 -311 -274 -330 -15 -39 -3 -78 34 -113 37 -35 78 -43 118 -22 26
14 26 14 142 149 50 58 102 118 116 135 176 202 315 366 330 390 30 48 25 91
-15 131 -43 43 -100 47 -139 12z"/>
<path d="M2082 7807 c-49 -28 -69 -96 -42 -147 18 -34 718 -584 755 -594 45
-12 98 11 118 51 17 32 14 97 -5 121 -11 13 -370 302 -497 401 -19 14 -51 40
-70 56 -114 96 -159 125 -198 125 -21 -1 -48 -6 -61 -13z"/>
<path d="M5118 7056 c-1 -2 -97 -6 -213 -10 -115 -3 -228 -8 -250 -10 -148
-13 -202 -19 -215 -21 -8 -1 -40 -6 -70 -11 -30 -4 -57 -8 -60 -9 -3 -1 -27
-5 -55 -9 -84 -13 -324 -73 -440 -109 -214 -68 -465 -188 -610 -292 -379 -271
-592 -692 -572 -1130 6 -133 14 -180 33 -211 13 -19 8 -24 -71 -83 -150 -111
-282 -258 -312 -346 -32 -96 38 -206 150 -236 45 -12 159 -13 215 -3 20 4 63
17 96 30 32 13 60 23 62 21 1 -1 5 -22 8 -47 20 -145 22 -137 -42 -169 -53
-27 -128 -95 -148 -133 -53 -102 -62 -382 -18 -551 47 -183 172 -334 347 -419
90 -44 432 -153 542 -172 11 -2 38 -9 60 -15 38 -10 60 -14 138 -26 26 -4 57
-11 97 -20 3 -1 30 -5 60 -9 30 -5 62 -10 70 -11 18 -3 96 -13 165 -21 28 -3
84 -9 125 -14 71 -8 212 -18 365 -26 103 -5 548 -5 635 0 41 3 122 7 180 10
58 4 123 8 145 11 22 2 76 7 120 10 44 4 91 8 105 10 14 2 52 7 85 10 33 4 71
8 85 10 14 2 45 7 70 10 25 3 70 10 100 15 30 5 71 11 90 14 19 2 62 9 95 15
33 5 74 12 90 14 60 9 212 39 294 58 47 11 101 22 120 25 20 3 39 8 43 11 5 2
18 6 29 8 90 18 284 86 383 136 174 87 259 185 302 349 29 107 22 499 -10 574
-24 56 -114 126 -162 126 -10 0 -14 3 -10 7 7 7 11 8 86 18 25 3 63 11 85 17
22 5 49 12 60 14 48 9 72 54 144 276 39 121 68 229 67 245 -2 15 -4 33 -5 39
-2 18 -111 157 -160 202 -25 24 -72 63 -103 87 l-56 42 23 34 c24 34 29 52 45
159 14 92 3 305 -20 414 -43 198 -149 397 -277 524 -110 109 -284 208 -511
291 -113 41 -361 117 -415 127 -16 2 -66 13 -111 24 -91 21 -351 66 -436 75
-30 3 -91 10 -135 15 -122 15 -186 19 -350 26 -82 3 -155 7 -162 9 -6 2 -13 2
-15 1z m277 -227 c241 -19 272 -23 505 -60 496 -80 866 -198 1105 -355 89 -58
117 -86 187 -187 119 -173 170 -405 144 -647 -6 -52 -13 -70 -34 -90 -59 -55
-219 -114 -502 -185 -62 -15 -245 -51 -305 -60 -22 -3 -94 -15 -160 -26 -66
-11 -149 -25 -185 -30 -36 -5 -76 -11 -90 -14 -34 -5 -111 -13 -200 -20 -167
-14 -239 -20 -324 -31 -16 -1 -79 -6 -140 -9 -61 -4 -138 -8 -171 -10 -115 -6
-551 -18 -710 -18 -164 -1 -568 10 -640 18 -22 2 -76 6 -120 10 -142 10 -286
28 -380 45 -27 5 -64 12 -80 15 -64 10 -233 56 -299 82 -38 14 -85 40 -104 58
l-34 31 -2 135 c-1 164 7 236 40 342 88 279 276 508 537 651 26 14 68 38 95
52 163 90 502 205 707 239 17 3 53 10 80 15 28 5 68 12 90 14 22 3 58 8 80 11
44 5 122 14 235 24 104 10 554 10 675 0z m1936 -1628 c28 -15 74 -48 102 -72
l51 -43 -31 -7 c-96 -19 -590 -15 -611 5 -4 5 16 11 138 41 72 18 221 70 260
91 33 18 32 18 91 -15z m-4380 -169 c78 -32 282 -89 328 -91 12 -1 12 -4 -1
-18 -38 -44 -138 -229 -138 -255 0 -92 96 -144 172 -94 13 9 64 84 114 167
l89 151 85 -6 c47 -4 99 -8 115 -11 64 -8 416 -25 619 -28 l90 -2 18 -93 c21
-109 29 -127 68 -147 48 -25 96 -19 129 15 36 38 40 66 25 156 -6 38 -11 70
-10 71 1 1 74 5 161 8 184 6 385 15 465 20 30 2 100 6 155 10 55 3 118 8 140
10 22 2 72 7 110 10 39 4 82 8 97 11 35 5 57 -18 105 -114 45 -91 57 -195 29
-251 -9 -17 -18 -31 -21 -31 -2 0 -24 13 -47 29 -71 48 -194 92 -293 106 -235
33 -414 -56 -450 -223 -17 -82 -156 -55 -295 58 -79 64 -101 73 -160 65 -36
-4 -52 -13 -82 -46 -34 -38 -68 -116 -82 -193 -2 -11 -14 -75 -26 -141 -31
-171 -70 -275 -104 -275 -26 0 -97 128 -126 228 -42 143 -56 211 -65 312 -16
191 -36 240 -118 281 -66 34 -144 24 -259 -33 -51 -26 -102 -54 -113 -62 -11
-8 -69 -52 -130 -97 -60 -44 -123 -93 -140 -108 -71 -66 -175 -121 -226 -121
-32 0 -67 41 -87 102 -21 62 -39 168 -46 274 -7 106 -43 164 -115 184 -41 11
-102 5 -135 -12 -72 -39 -239 -78 -250 -59 -6 9 57 85 118 141 71 65 191 149
201 141 5 -4 44 -22 86 -39z m3528 -96 c57 -20 114 -38 125 -40 12 -2 40 -9
63 -15 23 -6 61 -14 85 -17 24 -3 49 -7 56 -9 81 -27 618 -25 730 2 25 6 27
14 -19 -109 l-32 -87 -66 -10 c-36 -6 -86 -14 -111 -17 -56 -8 -373 -7 -431 1
-82 12 -94 13 -169 25 -41 7 -113 21 -160 32 -47 11 -94 21 -105 24 -31 6
-214 61 -272 81 -50 17 -53 21 -75 78 -12 33 -24 63 -26 66 -1 3 44 11 100 18
57 7 110 14 118 16 32 7 89 -4 189 -39z m-249 -386 c66 -21 247 -66 303 -76
41 -7 44 -10 22 -34 -37 -40 -78 -52 -157 -45 -79 7 -98 16 -161 75 -22 21
-56 47 -74 57 -35 19 -44 43 -15 43 9 0 46 -9 82 -20z m-2305 -95 c4 -33 9
-63 11 -67 12 -19 -70 -6 -113 18 -26 15 -49 28 -51 29 -2 2 30 21 70 43 40
22 74 40 75 39 1 -2 5 -29 8 -62z m1685 -29 c36 -12 85 -35 109 -50 42 -27 44
-29 25 -42 -10 -7 -23 -17 -29 -22 -75 -61 -225 -134 -354 -170 -91 -26 -216
-24 -273 4 -43 20 -49 34 -15 35 33 0 101 30 140 61 31 25 45 48 96 158 13 28
24 37 61 47 60 16 160 7 240 -21z m1709 -225 c19 -12 19 -16 27 -202 8 -172
-1 -234 -42 -306 -65 -113 -235 -194 -572 -272 -72 -17 -143 -33 -158 -35 -15
-3 -52 -10 -83 -17 -30 -6 -64 -12 -75 -14 -12 -2 -73 -12 -136 -24 -63 -11
-131 -22 -150 -25 -19 -2 -100 -13 -180 -24 -80 -12 -170 -23 -200 -27 -30 -3
-71 -8 -90 -10 -62 -7 -246 -21 -405 -31 -103 -6 -638 -6 -720 0 -38 3 -113 8
-165 11 -52 3 -111 7 -130 10 -19 2 -78 9 -130 15 -52 6 -131 17 -175 25 -44
8 -96 16 -116 19 -20 3 -42 8 -50 10 -8 3 -32 8 -54 11 -106 15 -400 92 -545
142 -167 57 -264 132 -320 246 -31 63 -56 180 -54 252 2 74 15 186 24 211 11
29 19 30 63 5 75 -42 416 -152 547 -176 14 -3 34 -7 45 -10 48 -11 263 -56
295 -61 301 -48 339 -57 340 -85 0 -18 109 -114 147 -130 90 -38 190 -14 255
61 l41 48 126 -6 c272 -13 751 -6 926 13 44 5 120 12 205 20 60 6 208 28 340
52 47 8 96 16 110 18 104 15 386 87 605 156 163 51 173 55 305 107 77 31 124
38 149 23z"/>
<path d="M0 1840 l0 -810 5120 0 5120 0 0 810 0 810 -5120 0 -5120 0 0 -810z"/>
</g>
</svg>
