<?xml version="1.0" standalone="no"?>
<!DOCTYPE svg PUBLIC "-//W3C//DTD SVG 20010904//EN"
 "http://www.w3.org/TR/2001/REC-SVG-20010904/DTD/svg10.dtd">
<svg version="1.0" xmlns="http://www.w3.org/2000/svg"
 width="1024.000000pt" height="1024.000000pt" viewBox="0 0 1024.000000 1024.000000"
 preserveAspectRatio="xMidYMid meet">
<metadata>
Created by potrace 1.14, written by Peter Selinger 2001-2017
</metadata>
<g transform="translate(0.000000,1024.000000) scale(0.100000,-0.100000)"
fill="#000000" stroke="none">
<path d="M2415 9320 c-48 -24 -73 -62 -79 -121 -4 -37 9 -72 96 -268 55 -124
115 -259 134 -299 19 -41 34 -75 34 -77 0 -2 18 -43 40 -90 22 -47 40 -88 40
-91 0 -2 18 -43 40 -90 22 -47 40 -87 40 -89 0 -2 16 -39 36 -82 20 -43 92
-202 159 -353 68 -151 128 -286 134 -300 18 -38 70 -69 126 -74 40 -4 58 0 90
19 53 30 70 65 69 134 -1 56 -16 93 -176 441 -11 25 -37 83 -58 130 -21 47
-54 120 -74 163 -20 43 -36 80 -36 83 0 2 -15 36 -34 76 -18 40 -49 109 -69
153 -19 44 -44 100 -55 125 -12 25 -73 161 -136 304 -63 142 -122 266 -131
276 -45 50 -125 63 -190 30z"/>
<path d="M4995 8946 c-36 -15 -84 -70 -86 -94 -4 -59 -7 -151 -13 -327 -26
-835 -26 -821 -1 -862 52 -88 192 -80 247 13 13 22 18 63 22 164 3 74 8 203
12 285 8 195 10 257 18 510 7 195 6 212 -12 245 -10 19 -30 43 -44 53 -33 25
-104 31 -143 13z"/>
<path d="M7345 8942 c-45 -28 -58 -48 -103 -147 -22 -49 -56 -124 -75 -165
-19 -41 -99 -214 -177 -385 -78 -170 -162 -352 -186 -403 -24 -51 -44 -94 -44
-96 0 -2 -16 -38 -35 -79 -42 -89 -45 -139 -12 -187 32 -47 66 -70 112 -74 49
-4 92 10 123 41 25 25 37 49 242 498 78 171 159 347 181 393 21 46 39 85 39
87 0 2 23 52 51 112 88 184 100 217 104 262 5 52 -21 110 -62 138 -39 27 -119
29 -158 5z"/>
<path d="M8829 8103 c-43 -6 -78 -44 -475 -503 -93 -107 -170 -196 -174 -200
-6 -6 -67 -75 -140 -158 -66 -76 -100 -135 -100 -175 0 -114 148 -193 241
-128 19 13 77 74 129 136 109 128 450 525 465 541 5 6 30 35 55 64 25 29 50
58 55 64 51 55 107 129 119 158 45 106 -53 218 -175 201z"/>
<path d="M883 7967 c-69 -25 -107 -98 -91 -170 5 -22 14 -48 22 -58 12 -17
799 -650 954 -767 55 -42 82 -56 113 -58 91 -6 164 61 164 151 0 29 -7 65 -15
80 -16 30 -976 803 -1023 823 -34 15 -81 14 -124 -1z"/>
<path d="M5028 6905 c-2 -1 -102 -6 -223 -9 -121 -4 -238 -9 -260 -11 -207
-17 -236 -20 -395 -41 -125 -16 -162 -22 -200 -29 -14 -3 -36 -8 -50 -10 -14
-3 -41 -8 -60 -11 -19 -3 -43 -7 -52 -10 -10 -3 -30 -8 -45 -10 -22 -4 -174
-40 -248 -58 -271 -68 -614 -206 -875 -354 -356 -201 -629 -487 -800 -837
-129 -265 -183 -500 -184 -812 0 -62 -3 -113 -7 -113 -4 0 -36 16 -72 35 -92
49 -117 47 -202 -19 -141 -110 -371 -351 -415 -435 -19 -37 -5 -88 53 -197 30
-54 73 -134 96 -177 24 -45 44 -97 47 -122 2 -24 8 -54 13 -67 6 -16 4 -33 -9
-58 -9 -19 -30 -68 -45 -108 -16 -41 -39 -82 -53 -92 -22 -18 -113 -49 -357
-121 -124 -37 -150 -51 -169 -88 -19 -37 -29 -148 -30 -346 -2 -188 13 -329
38 -367 22 -34 31 -38 281 -115 128 -39 228 -76 241 -88 29 -26 114 -231 114
-274 0 -22 -18 -68 -49 -125 -140 -262 -181 -346 -181 -373 0 -17 12 -48 26
-69 101 -150 408 -443 480 -458 50 -11 62 -6 349 149 33 18 78 42 100 54 51
27 98 26 160 -3 28 -12 68 -29 89 -36 60 -19 105 -49 120 -79 7 -14 41 -120
76 -236 35 -116 71 -222 81 -236 10 -15 31 -31 46 -38 51 -20 186 -29 398 -26
228 3 301 16 329 57 9 12 33 78 55 147 21 70 54 173 72 231 37 120 57 145 140
174 30 10 75 30 101 43 73 36 106 31 227 -34 303 -161 333 -175 369 -169 42 6
147 85 261 196 46 45 91 81 100 81 9 0 135 0 281 0 347 -1 550 6 920 34 41 4
91 8 110 10 19 2 67 7 105 10 39 4 81 8 95 10 14 2 57 7 95 11 39 3 77 8 85 9
8 1 40 6 70 10 30 3 66 8 80 10 14 2 50 7 80 10 30 4 64 9 75 11 11 3 38 7 60
9 22 3 51 7 65 10 14 3 39 7 55 9 148 24 526 93 575 106 19 5 49 12 67 15 17
3 113 25 212 50 418 105 672 224 823 383 146 155 190 316 183 667 -6 255 -10
320 -31 423 -12 60 -119 157 -207 187 l-58 19 108 18 c195 31 252 48 293 87
34 33 45 61 135 336 105 321 113 364 79 428 -72 132 -259 326 -414 428 l-24
16 31 39 c31 40 48 86 57 159 3 22 8 58 12 80 3 22 7 96 8 165 4 223 -22 398
-90 600 -78 229 -262 500 -423 622 -31 24 -58 46 -61 49 -3 3 -39 26 -81 51
-246 149 -592 283 -991 384 -78 19 -150 37 -158 39 -185 38 -324 65 -360 70
-25 3 -52 8 -60 10 -17 5 -186 30 -269 40 -30 4 -61 8 -70 10 -9 1 -50 6 -91
10 -41 4 -86 8 -100 10 -14 2 -68 6 -120 10 -52 4 -111 9 -130 11 -19 1 -127
6 -240 9 -113 4 -217 8 -232 9 -15 2 -29 2 -30 1z m350 -309 c89 -4 170 -9
180 -11 10 -2 59 -6 108 -9 49 -4 103 -8 120 -11 18 -2 63 -7 100 -10 38 -3
76 -8 84 -10 8 -2 40 -7 70 -10 30 -3 62 -8 70 -10 8 -2 35 -7 60 -10 25 -3
97 -15 160 -26 63 -12 126 -23 140 -25 159 -29 639 -154 705 -184 11 -5 40
-16 65 -24 162 -52 406 -166 525 -244 226 -149 391 -424 450 -752 24 -128 24
-360 1 -484 -13 -73 -131 -139 -401 -227 -70 -23 -461 -124 -520 -134 -73 -13
-80 -14 -105 -19 -14 -3 -38 -7 -55 -9 -16 -3 -37 -7 -45 -10 -8 -3 -33 -8
-55 -11 -22 -3 -83 -12 -135 -20 -52 -8 -108 -17 -125 -19 -16 -3 -68 -12
-115 -20 -47 -9 -107 -19 -135 -22 -62 -8 -111 -14 -150 -20 -16 -2 -59 -7
-95 -10 -36 -3 -78 -8 -95 -10 -16 -3 -61 -7 -100 -10 -38 -3 -104 -8 -145
-11 -41 -3 -82 -7 -90 -9 -40 -10 -460 -36 -793 -50 -373 -16 -384 -15 -395 9
-41 92 -376 430 -479 484 -39 21 -74 13 -177 -42 -348 -184 -334 -178 -379
-173 -23 2 -89 24 -146 48 -107 45 -144 76 -155 129 -2 14 -26 93 -51 175 -26
83 -53 170 -61 195 -15 51 -44 87 -81 101 -39 15 -182 24 -358 24 -190 -1
-278 -10 -325 -33 -42 -21 -56 -53 -135 -312 -30 -102 -64 -196 -74 -210 -11
-15 -54 -39 -112 -63 -52 -21 -99 -40 -105 -43 -12 -5 -64 42 -65 60 0 6 -3
20 -5 31 -8 34 -8 307 0 375 47 413 275 803 616 1054 73 54 257 160 398 231
120 59 328 139 517 198 134 42 461 114 600 133 28 3 58 8 69 10 10 2 44 6 75
9 31 4 66 8 78 10 12 2 57 6 100 10 43 3 92 8 108 10 17 2 95 7 175 10 80 4
146 8 147 9 4 4 399 -2 541 -8z m2834 -2283 c69 -40 163 -109 192 -142 21 -23
19 -25 -47 -36 -133 -22 -634 -22 -752 0 -11 2 -32 4 -47 4 -31 1 -39 16 -10
18 73 6 434 119 537 168 28 13 53 24 57 24 4 1 35 -16 70 -36z m-1272 -349
c99 -38 304 -97 398 -114 31 -5 68 -12 82 -15 14 -3 48 -8 75 -11 28 -3 52 -7
55 -9 41 -25 836 -26 879 -1 3 2 30 6 58 10 l53 6 -31 -82 c-17 -46 -40 -108
-50 -139 l-20 -56 -67 -12 c-186 -32 -290 -39 -522 -35 -113 2 -214 5 -225 7
-11 3 -52 8 -90 11 -39 4 -82 8 -95 11 -13 3 -42 7 -65 10 -204 29 -597 131
-802 207 -47 17 -53 23 -67 66 -9 26 -27 66 -40 89 l-24 41 22 6 c12 3 47 8
77 12 30 4 95 12 144 18 147 19 157 18 255 -20z m-796 -123 c83 -127 108 -196
111 -316 2 -70 -7 -112 -33 -152 l-14 -23 -43 30 c-69 47 -174 96 -265 123
-76 23 -111 30 -200 44 -46 7 -198 3 -247 -7 -188 -36 -308 -140 -352 -307
-14 -52 -23 -58 -58 -40 -24 12 -237 81 -283 92 -37 8 -70 26 -103 54 -19 17
-60 42 -90 55 -52 23 -56 28 -72 79 -13 42 -15 62 -7 91 6 20 9 45 7 54 -15
85 -15 134 2 165 10 17 19 33 20 35 0 2 68 5 150 7 355 10 730 27 878 40 28 3
88 7 135 10 47 3 96 8 110 10 14 2 70 7 125 10 55 4 101 8 102 9 1 1 20 3 42
4 38 3 40 1 85 -67z m-3244 -165 c74 -8 161 -31 244 -66 l78 -33 -67 -41 c-55
-34 -267 -183 -325 -229 -64 -50 -118 -95 -135 -110 -27 -26 -140 -99 -195
-127 -27 -14 -64 -23 -91 -24 -39 0 -50 4 -72 29 -34 38 -64 116 -87 228 -36
163 -36 157 26 202 69 50 74 52 74 23 0 -31 33 -83 66 -105 40 -26 113 -26
160 1 31 17 54 46 109 138 39 64 77 118 85 120 16 4 55 2 130 -6z m3840 -300
c91 -24 220 -57 288 -72 67 -15 122 -30 122 -33 0 -3 -11 -18 -24 -33 -51 -57
-112 -70 -254 -55 -79 9 -90 15 -181 98 -41 37 -92 76 -113 86 -28 13 -38 24
-38 41 0 18 4 22 18 18 9 -3 91 -25 182 -50z m-3299 -48 c0 -13 2 -30 3 -38 2
-8 6 -42 10 -76 l6 -60 -42 1 c-59 2 -194 71 -177 91 6 8 15 14 19 14 3 0 42
20 86 45 43 25 82 45 86 45 5 0 8 -10 9 -22z m2310 -88 c82 -21 172 -60 232
-101 l38 -26 -101 -73 c-111 -79 -235 -141 -375 -188 -149 -50 -171 -54 -296
-54 -115 0 -136 8 -133 54 3 48 3 48 19 48 22 0 114 61 147 96 36 40 64 93 83
158 19 64 44 85 125 102 69 15 163 9 261 -16z m2442 -329 c15 -6 28 -16 28
-23 1 -7 3 -24 4 -38 17 -169 22 -427 11 -499 -44 -272 -282 -413 -941 -555
-88 -19 -173 -37 -190 -40 -16 -3 -91 -17 -165 -31 -122 -23 -215 -39 -295
-51 -16 -3 -57 -10 -89 -15 -33 -6 -78 -13 -100 -15 -23 -3 -68 -9 -101 -14
-33 -5 -76 -12 -95 -14 -46 -6 -127 -17 -165 -21 -16 -2 -50 -6 -75 -10 -25
-3 -72 -8 -105 -10 -33 -3 -81 -7 -107 -10 -130 -14 -271 -25 -373 -31 -239
-12 -394 -17 -573 -18 l-203 -1 -46 85 c-147 276 -182 349 -178 372 4 20 30
85 83 208 8 19 22 43 30 53 9 10 86 40 171 66 l156 49 295 6 c283 5 399 9 540
21 36 3 97 8 135 11 39 3 81 7 95 10 14 2 56 6 93 9 37 4 75 8 85 9 9 2 42 7
72 11 30 3 66 8 80 10 14 2 45 7 70 10 25 3 70 10 100 15 30 5 73 12 95 16 22
3 58 9 80 14 22 5 56 12 75 15 19 3 42 8 50 10 8 2 30 7 48 10 75 13 315 69
427 100 33 9 68 18 78 20 126 28 650 204 797 269 36 16 56 15 103 -3z m-6221
-40 c174 -101 843 -285 1323 -364 17 -3 44 -8 60 -11 17 -3 46 -8 65 -11 19
-3 70 -10 112 -17 l77 -11 -33 -66 c-125 -248 -379 -427 -661 -467 -48 -6
-212 -7 -222 -1 -5 3 -30 8 -58 11 -176 23 -381 145 -510 305 -143 177 -209
389 -196 629 1 27 2 27 43 3z"/>
</g>
</svg>
